<?xml version="1.0" standalone="no"?>
<!DOCTYPE svg PUBLIC "-//W3C//DTD SVG 20010904//EN"
 "http://www.w3.org/TR/2001/REC-SVG-20010904/DTD/svg10.dtd">
<svg version="1.0" xmlns="http://www.w3.org/2000/svg"
 width="1075.000000pt" height="1075.000000pt" viewBox="0 0 1075.000000 1075.000000"
 preserveAspectRatio="xMidYMid meet">

<g transform="translate(0.000000,1075.000000) scale(0.100000,-0.100000)"
fill="#000000" stroke="none">
<path d="M3885 8566 c-476 -99 -864 -312 -1206 -662 -349 -358 -567 -809 -635
-1314 -11 -86 -14 -341 -14 -1390 l0 -1285 24 -50 c29 -62 86 -117 151 -147
47 -22 62 -23 265 -23 l215 0 57 28 c101 50 168 152 168 257 0 150 122 273
271 273 59 0 79 -6 179 -53 204 -94 575 -200 703 -200 73 0 138 29 197 88 83
84 90 111 90 358 0 235 -11 281 -81 354 -50 51 -102 75 -208 95 -100 19 -260
74 -355 122 -404 203 -686 576 -772 1023 -24 128 -24 378 0 510 89 492 432
903 906 1085 47 18 139 45 204 60 142 31 181 49 233 109 66 75 75 120 71 368
-3 197 -5 216 -25 254 -36 67 -70 101 -135 133 -76 39 -144 40 -303 7z"/>
<path d="M4808 8541 c-120 -39 -216 -124 -272 -241 -29 -61 -31 -72 -31 -180
0 -109 2 -119 32 -183 63 -132 168 -214 333 -258 542 -144 955 -596 1046
-1147 22 -131 21 -349 -1 -477 -49 -282 -189 -555 -390 -759 -180 -182 -385
-303 -640 -376 -124 -36 -161 -53 -222 -102 -183 -145 -218 -420 -77 -607 111
-148 282 -206 474 -161 448 105 888 375 1195 732 719 836 757 2039 92 2918
-265 349 -663 639 -1071 780 -244 83 -353 97 -468 61z"/>
<path d="M8131 8425 c-30 -9 -75 -27 -101 -41 -31 -17 -242 -221 -637 -617
l-592 -592 35 -118 c82 -285 108 -498 101 -827 -7 -290 -34 -474 -108 -718
l-29 -97 588 -588 c550 -551 592 -590 660 -624 62 -31 86 -37 157 -41 164 -9
289 49 386 177 41 56 79 160 79 220 0 35 -34 70 -850 886 l-850 850 851 851
852 852 -6 54 c-22 209 -196 371 -412 384 -44 2 -90 -2 -124 -11z"/>
<path d="M4340 3081 c-54 -8 -79 -21 -131 -68 l-39 -35 0 -294 c0 -232 3 -302
14 -329 18 -43 91 -97 126 -93 l25 3 3 158 3 157 399 0 400 0 0 -147 c0 -82 4
-154 9 -162 15 -24 73 -5 115 38 36 37 39 45 47 123 5 45 6 187 3 313 l-6 230
-32 33 c-17 19 -49 43 -71 55 -39 21 -51 22 -430 24 -214 0 -410 -2 -435 -6z
m749 -181 c44 -12 51 -24 51 -87 l0 -53 -400 0 -400 0 0 34 c0 70 11 96 44
105 43 13 662 13 705 1z"/>
<path d="M6733 3078 c-24 -5 -58 -24 -82 -46 -57 -51 -63 -94 -59 -406 3 -285
8 -303 83 -341 37 -18 65 -20 415 -23 206 -2 418 1 470 6 92 10 96 11 127 47
36 42 55 86 43 105 -6 10 -114 15 -481 21 -261 4 -475 8 -476 8 -2 1 -3 97 -3
215 0 186 2 215 17 227 13 11 106 15 486 17 l469 3 -6 27 c-16 65 -88 127
-165 142 -67 13 -780 11 -838 -2z"/>
<path d="M7800 2675 l0 -415 90 0 90 0 0 150 c0 117 3 150 13 150 7 0 152 -56
323 -123 401 -161 465 -182 504 -168 41 14 100 60 100 78 0 20 -119 73 -405
183 -299 114 -331 128 -319 139 5 5 99 45 209 89 299 120 488 201 505 217 12
13 10 18 -14 44 -16 17 -44 37 -63 46 -32 15 -38 15 -101 -5 -37 -12 -214 -80
-393 -151 -180 -71 -334 -129 -343 -129 -14 0 -16 15 -16 103 -1 117 -12 186
-31 198 -8 5 -44 9 -81 9 l-68 0 0 -415z"/>
<path d="M1965 3071 c-111 -10 -150 -32 -191 -111 -16 -31 -19 -65 -22 -272
-5 -292 2 -332 64 -394 31 -32 52 -44 72 -44 28 0 30 3 36 53 3 28 6 98 6 155
l0 102 238 1 c130 0 320 4 422 8 206 8 229 15 277 77 25 34 28 46 31 139 5
130 -13 200 -62 243 -30 26 -43 30 -117 36 -137 10 -667 15 -754 7z m753 -263
l3 -68 -396 0 -395 0 0 60 c0 54 3 62 23 70 12 5 188 8 392 7 l370 -2 3 -67z"/>
<path d="M3065 3069 c-11 -7 -34 -25 -52 -42 -49 -46 -55 -93 -51 -392 3 -240
5 -263 23 -295 12 -19 36 -43 55 -55 34 -19 50 -20 495 -20 420 0 463 2 487
17 31 21 73 74 83 105 13 44 -17 47 -507 51 l-458 4 -2 316 -3 317 -25 2 c-14
2 -34 -2 -45 -8z"/>
<path d="M5466 3042 c-56 -39 -75 -69 -86 -137 -14 -83 -13 -480 1 -530 19
-68 121 -147 151 -117 6 6 12 132 16 316 l7 306 285 -228 c402 -322 510 -402
539 -402 39 0 98 47 123 99 22 44 23 55 23 306 0 253 -1 261 -24 308 -34 70
-115 120 -138 85 -4 -7 -10 -149 -13 -316 l-5 -303 -325 262 c-385 310 -476
379 -498 379 -10 -1 -35 -13 -56 -28z"/>
</g>
</svg>
